<svg width="53" height="51" viewBox="0 0 53 51" fill="none" xmlns="http://www.w3.org/2000/svg">
<path fill-rule="evenodd" clip-rule="evenodd" d="M34.7625 10.963H42.9978C42.9978 10.963 43.311 18.6676 34.7625 18.6676C33.174 18.6676 31.7711 18.0214 30.9204 17.0333C30.5808 16.6384 29.8911 16.5883 29.4787 16.9331L27.7128 18.4076V23.3934L25.3628 24.0243V13.5922C24.6613 13.2589 24.1879 12.6387 24.1879 11.926C24.1879 10.8281 25.3088 9.94401 26.6659 10.0028C27.8795 10.0548 28.8618 10.8878 28.8877 11.8837C28.9065 12.6137 28.4283 13.2522 27.7128 13.5922V15.2092L31.2529 12.2525V12.2544C32.1141 11.4618 33.3666 10.963 34.7625 10.963ZM22.1443 17.0091C22.4857 16.6128 23.1792 16.5635 23.5939 16.9086L24.1882 17.4045V14.1943L21.8099 12.2118V12.2127C20.9439 11.4182 19.6844 10.9175 18.2809 10.9175H10C10 10.9175 10.4986 18.6505 18.2809 18.6505C19.8782 18.6505 21.2889 18.0019 22.1443 17.0091ZM22.8718 24.737L22.8588 24.7409C21.8657 25.0161 20.9911 25.3966 20.2573 25.8592C18.7032 24.8529 18.4487 23.694 18.4487 23.045C18.4487 22.1265 18.702 21.2525 19.8892 20.4162C21.1307 19.517 22.7463 19.4639 23.337 20.2539C23.8803 20.9802 23.3488 22.141 22.151 22.848C21.7344 23.0933 21.2929 23.2497 20.8704 23.3212C21.0171 23.7085 21.4633 24.1025 22.1439 24.4347C22.3841 24.5516 22.5794 24.6375 22.8718 24.737ZM29.8154 20.6724C30.383 19.714 31.9369 19.7807 33.1291 20.8689C34.2712 21.8823 34.5136 22.9412 34.5169 24.0552C34.5169 24.9539 34.1985 26.6588 32.061 27.9728C31.5729 28.2724 31.2055 28.4538 30.4751 28.7241C32.0382 29.5361 32.9425 30.8186 32.9425 32.2825C32.9425 34.4016 31.2293 35.6127 29.2932 36.3323C30.251 37.0379 30.7561 37.9588 30.7561 38.9078C30.7561 39.5244 30.6811 40.1715 29.7141 40.9251L29.713 40.9239C29.6561 40.9707 29.5856 41 29.5071 41C29.325 41 29.1771 40.8479 29.1771 40.6607C29.1771 40.5986 29.1943 40.5413 29.2227 40.491L29.2215 40.4898C29.953 39.2272 29.1305 38.4304 27.8234 37.8664V39.8287C27.8234 40.4746 27.3138 40.9988 26.6858 40.9988C26.0579 40.9988 25.5483 40.4746 25.5483 39.8287V37.8652C24.1877 38.4526 23.487 39.1313 24.1468 40.4898C24.1752 40.5401 24.1923 40.5975 24.1923 40.6595C24.1923 40.8467 24.0444 40.9988 23.8624 40.9988C23.7839 40.9988 23.7122 40.9696 23.6553 40.9228L23.6542 40.9239C22.6554 40.2031 22.5894 39.4777 22.5894 38.8926C22.5894 37.8734 23.1037 37.0063 24.0603 36.3241C24.5194 35.9984 24.8001 35.8704 25.957 35.3428L25.9571 35.3427C26.1677 35.2467 26.4074 35.1374 26.6825 35.0112C27.0971 34.8209 27.472 34.652 27.8105 34.4994L27.811 34.4992L27.8111 34.4991C30.001 33.5123 30.664 33.2135 30.664 32.2801C30.664 31.8355 30.0474 31.1708 28.8712 30.759C28.5966 30.6645 28.334 30.5752 28.0822 30.4897L27.8211 30.4009V31.8928L25.546 32.9366V30.3997C25.215 30.5121 24.8646 30.6314 24.4926 30.759C23.3164 31.1697 22.6997 31.8355 22.6997 32.2801C22.6997 32.8874 22.9773 33.242 23.8772 33.7101C23.0956 34.1044 22.4267 34.597 21.8909 35.1645C21.0389 34.4671 20.4258 33.5146 20.4258 32.2801C20.4258 30.5471 21.6931 29.0681 23.8225 28.3239C25.347 27.8032 26.5073 27.4124 27.4082 27.1104C30.036 26.227 30.3443 26.117 30.962 25.7379C31.6162 25.3353 32.045 24.8579 32.1861 24.3887C31.7799 24.3021 31.3556 24.1125 30.9552 23.8153C29.804 22.9588 29.2943 21.5523 29.8154 20.6724Z" fill="url(#paint0_linear_1464_881)"/>
<defs>
<linearGradient id="paint0_linear_1464_881" x1="35.4011" y1="-2.53953" x2="-2.90979" y2="-2.53953" gradientUnits="userSpaceOnUse">
<stop stop-color="#1A4FBA"/>
<stop offset="0.286458" stop-color="#F3C294"/>
<stop offset="1" stop-color="#F4FAFF"/>
</linearGradient>
</defs>
</svg>
